<svg width="800" height="1200" xmlns="http://www.w3.org/2000/svg" viewBox="0 0 100 110">
  <!-- B SVG extracted from the original behavure-logo.svg -->
  <path opacity="0.1" fill="#ffffff" d="M57.38,44.28c.21-.19.41-.39.6-.58,1.03-1.03,15.35-8.6,15.35-8.6l-9.83-19.34C59.61,6.44,50.73.34,40.71.01h0s-5.02-.01-5.02-.01c-2.93,0-5.84.36-8.66,1.06C11.11,5.05,0,19.29,0,35.69v80.18s12.3-8.97,12.3-8.97V35.69c0-10.75,7.28-20.08,17.7-22.69,1.85-.46,3.76-.7,5.68-.7h4.19c7.33,0,13.3,5.96,13.3,13.3,0,3.55-1.38,6.89-3.89,9.4-1.71,1.71-3.83,2.92-6.15,3.5-1.06.26-2.15.4-3.26.4h-.33c-.07,0-.14,0-.21,0h-9.26s0-20.78,0-20.78l-2.25,1.07c-5.1,2.42-8.84,7.16-10.02,12.67l-.03.16v70.89s12.3,0,12.3,0h9.8c2.6,0,5.21-.32,7.74-.96,6.04-1.51,11.47-4.71,15.69-9.25,6.12-6.58,9.14-15.15,8.49-24.15-.71-9.87-6.05-18.79-14.43-24.28ZM54.31,84.32c-2.61,2.81-5.93,4.78-9.58,5.69-1.57.39-3.2.59-4.85.59h-9.8s0-39.41,0-39.41h9.26c10.59,0,19.46,8.01,20.19,18.24.4,5.55-1.46,10.84-5.23,14.89Z"/>
  <circle class="accent" cx="42.57" cy="23.48" r="5.58" fill="#009e73" opacity="0.25"/>
</svg>